<svg width="446" height="357" viewBox="0 0 446 357" fill="none" xmlns="http://www.w3.org/2000/svg">
<g clip-path="url(#clip0_178_2196)">
<path d="M111.5 44.625C111.5 20.0115 131.5 0 156.1 0H401.4C426 0 446 20.0115 446 44.625V245.438C446 270.051 426 290.062 401.4 290.062H234.707C226.484 272.282 213.871 256.942 198.191 245.438H267.6V223.125C267.6 210.783 277.565 200.812 289.9 200.812H334.5C346.835 200.812 356.8 210.783 356.8 223.125V245.438H401.4V44.625H156.1V78.8607C142.999 71.2605 127.737 66.9375 111.5 66.9375V44.625ZM111.5 89.25C120.285 89.25 128.985 90.9814 137.102 94.3453C145.218 97.7092 152.593 102.64 158.805 108.856C165.018 115.071 169.945 122.45 173.308 130.572C176.67 138.693 178.4 147.397 178.4 156.188C178.4 164.978 176.67 173.682 173.308 181.803C169.945 189.925 165.018 197.304 158.805 203.519C152.593 209.735 145.218 214.666 137.102 218.03C128.985 221.394 120.285 223.125 111.5 223.125C102.715 223.125 94.0152 221.394 85.8985 218.03C77.7818 214.666 70.4068 209.735 64.1945 203.519C57.9823 197.304 53.0545 189.925 49.6925 181.803C46.3304 173.682 44.6 164.978 44.6 156.188C44.6 147.397 46.3304 138.693 49.6925 130.572C53.0545 122.45 57.9823 115.071 64.1945 108.856C70.4068 102.64 77.7818 97.7092 85.8985 94.3453C94.0152 90.9814 102.715 89.25 111.5 89.25ZM92.8934 245.438H130.037C181.397 245.438 223 287.064 223 338.383C223 348.633 214.707 357 204.393 357H18.6066C8.29281 357 0 348.703 0 338.383C0 287.064 41.6034 245.438 92.8934 245.438Z" fill="url(#paint0_linear_178_2196)"/>
</g>
<defs>
<linearGradient id="paint0_linear_178_2196" x1="13.1177" y1="-2.62501" x2="389.781" y2="333.165" gradientUnits="userSpaceOnUse">
<stop offset="0.453125" stop-color="#32CD32"/>
<stop offset="1" stop-color="white"/>
</linearGradient>
<clipPath id="clip0_178_2196">
<rect width="446" height="357" fill="white"/>
</clipPath>
</defs>
</svg>
