<svg width="351" height="302" viewBox="0 0 351 302" fill="none" xmlns="http://www.w3.org/2000/svg">
<path d="M156.51 294.508L32.632 178.527C29.7527 175.845 27.0105 172.958 24.474 170.002H84.1166C99.61 170.002 113.595 160.652 119.559 146.283L126.758 128.958L160.555 204.239C163.16 210.083 168.85 213.864 175.226 213.933C181.601 214.002 187.429 210.495 190.308 204.789L219.375 146.42L220.54 148.758C227.053 161.82 240.353 170.07 254.886 170.07H326.526C323.989 173.027 321.247 175.914 318.368 178.595L194.49 294.508C189.348 299.32 182.561 302.002 175.5 302.002C168.439 302.002 161.652 299.32 156.51 294.508ZM345.31 137.002H254.818C252.761 137.002 250.842 135.833 249.882 133.977L233.977 102.145C231.166 96.5767 225.476 93.0017 219.238 93.0017C212.999 93.0017 207.309 96.508 204.499 102.145L176.117 159.07L141.154 80.7642C138.48 74.783 132.448 70.933 125.935 71.0705C119.422 71.208 113.527 75.1267 110.99 81.2455L89.1897 133.702C88.367 135.764 86.3103 137.07 84.1166 137.07H10.9688C9.18633 137.07 7.54102 137.345 5.96426 137.827C2.05664 126.827 0 115.139 0 103.245V99.258C0 51.2017 34.6201 10.2267 81.8543 2.32048C113.115 -2.90452 144.925 7.33923 167.273 29.7517L175.5 38.0017L183.727 29.7517C206.075 7.33923 237.885 -2.90452 269.146 2.32048C316.38 10.2267 351 51.2017 351 99.258V103.245C351 114.864 349.08 126.277 345.31 137.002Z" fill="url(#paint0_linear_178_2201)"/>
<defs>
<linearGradient id="paint0_linear_178_2201" x1="18.3358" y1="0.897099" x2="249.671" y2="302.351" gradientUnits="userSpaceOnUse">
<stop offset="0.320281" stop-color="#32CD32"/>
<stop offset="1" stop-color="white"/>
</linearGradient>
</defs>
</svg>
