<svg width="336" height="299" viewBox="0 0 336 299" fill="none" xmlns="http://www.w3.org/2000/svg">
<path d="M93.3339 0C83.0089 0 74.6672 8.35098 74.6672 18.6875C74.6672 29.024 83.0089 37.375 93.3339 37.375H122.909L5.48389 154.989C-1.80778 162.289 -1.80778 174.144 5.48389 181.444C12.7756 188.744 24.6172 188.744 31.9089 181.444L149.334 63.8295V93.4375C149.334 103.774 157.676 112.125 168.001 112.125C178.326 112.125 186.667 103.774 186.667 93.4375V18.6875C186.667 8.35098 178.326 0 168.001 0H93.3339ZM336.001 46.7188C336.001 39.2844 333.051 32.1545 327.8 26.8977C322.549 21.6408 315.427 18.6875 308.001 18.6875C300.574 18.6875 293.453 21.6408 288.202 26.8977C282.951 32.1545 280.001 39.2844 280.001 46.7188C280.001 54.1531 282.951 61.283 288.202 66.5398C293.453 71.7967 300.574 74.75 308.001 74.75C315.427 74.75 322.549 71.7967 327.8 66.5398C333.051 61.283 336.001 54.1531 336.001 46.7188ZM261.334 121.469C261.334 117.788 260.61 114.143 259.203 110.742C257.795 107.341 255.733 104.251 253.133 101.648C250.533 99.0447 247.446 96.9799 244.049 95.5713C240.652 94.1625 237.011 93.4375 233.334 93.4375C229.657 93.4375 226.016 94.1625 222.619 95.5713C219.222 96.9799 216.135 99.0447 213.535 101.648C210.935 104.251 208.872 107.341 207.465 110.742C206.058 114.143 205.334 117.788 205.334 121.469C205.334 125.15 206.058 128.795 207.465 132.196C208.872 135.597 210.935 138.687 213.535 141.29C216.135 143.893 219.222 145.958 222.619 147.366C226.016 148.775 229.657 149.5 233.334 149.5C237.011 149.5 240.652 148.775 244.049 147.366C247.446 145.958 250.533 143.893 253.133 141.29C255.733 138.687 257.795 135.597 259.203 132.196C260.61 128.795 261.334 125.15 261.334 121.469ZM233.334 224.25C240.76 224.25 247.882 221.297 253.133 216.04C258.384 210.783 261.334 203.653 261.334 196.219C261.334 188.784 258.384 181.655 253.133 176.398C247.882 171.141 240.76 168.188 233.334 168.188C225.908 168.188 218.786 171.141 213.535 176.398C208.284 181.655 205.334 188.784 205.334 196.219C205.334 203.653 208.284 210.783 213.535 216.04C218.786 221.297 225.908 224.25 233.334 224.25ZM261.334 270.969C261.334 267.288 260.61 263.643 259.203 260.242C257.795 256.841 255.733 253.751 253.133 251.148C250.533 248.545 247.446 246.48 244.049 245.071C240.652 243.663 237.011 242.938 233.334 242.938C229.657 242.938 226.016 243.663 222.619 245.071C219.222 246.48 216.135 248.545 213.535 251.148C210.935 253.751 208.872 256.841 207.465 260.242C206.058 263.643 205.334 267.288 205.334 270.969C205.334 274.65 206.058 278.295 207.465 281.696C208.872 285.097 210.935 288.187 213.535 290.79C216.135 293.393 219.222 295.458 222.619 296.866C226.016 298.275 229.657 299 233.334 299C237.011 299 240.652 298.275 244.049 296.866C247.446 295.458 250.533 293.393 253.133 290.79C255.733 288.187 257.795 285.097 259.203 281.696C260.61 278.295 261.334 274.65 261.334 270.969ZM336.001 270.969C336.001 263.534 333.051 256.405 327.8 251.148C322.549 245.891 315.427 242.938 308.001 242.938C300.574 242.938 293.453 245.891 288.202 251.148C282.951 256.405 280.001 263.534 280.001 270.969C280.001 278.403 282.951 285.533 288.202 290.79C293.453 296.047 300.574 299 308.001 299C315.427 299 322.549 296.047 327.8 290.79C333.051 285.533 336.001 278.403 336.001 270.969ZM158.667 224.25C166.093 224.25 173.215 221.297 178.466 216.04C183.717 210.783 186.667 203.653 186.667 196.219C186.667 188.784 183.717 181.655 178.466 176.398C173.215 171.141 166.093 168.188 158.667 168.188C151.241 168.188 144.119 171.141 138.868 176.398C133.617 181.655 130.667 188.784 130.667 196.219C130.667 203.653 133.617 210.783 138.868 216.04C144.119 221.297 151.241 224.25 158.667 224.25ZM186.667 270.969C186.667 263.534 183.717 256.405 178.466 251.148C173.215 245.891 166.093 242.938 158.667 242.938C151.241 242.938 144.119 245.891 138.868 251.148C133.617 256.405 130.667 263.534 130.667 270.969C130.667 278.403 133.617 285.533 138.868 290.79C144.119 296.047 151.241 299 158.667 299C166.093 299 173.215 296.047 178.466 290.79C183.717 285.533 186.667 278.403 186.667 270.969ZM84.0006 299C91.4266 299 98.5485 296.047 103.8 290.79C109.051 285.533 112.001 278.403 112.001 270.969C112.001 263.534 109.051 256.405 103.8 251.148C98.5485 245.891 91.4266 242.938 84.0006 242.938C76.5745 242.938 69.4526 245.891 64.2016 251.148C58.9506 256.405 56.0006 263.534 56.0006 270.969C56.0006 278.403 58.9506 285.533 64.2016 290.79C69.4526 296.047 76.5745 299 84.0006 299ZM336.001 196.219C336.001 188.784 333.051 181.655 327.8 176.398C322.549 171.141 315.427 168.188 308.001 168.188C300.574 168.188 293.453 171.141 288.202 176.398C282.951 181.655 280.001 188.784 280.001 196.219C280.001 203.653 282.951 210.783 288.202 216.04C293.453 221.297 300.574 224.25 308.001 224.25C315.427 224.25 322.549 221.297 327.8 216.04C333.051 210.783 336.001 203.653 336.001 196.219ZM308.001 149.5C315.427 149.5 322.549 146.547 327.8 141.29C333.051 136.033 336.001 128.903 336.001 121.469C336.001 114.034 333.051 106.905 327.8 101.648C322.549 96.3908 315.427 93.4375 308.001 93.4375C300.574 93.4375 293.453 96.3908 288.202 101.648C282.951 106.905 280.001 114.034 280.001 121.469C280.001 128.903 282.951 136.033 288.202 141.29C293.453 146.547 300.574 149.5 308.001 149.5Z" fill="url(#paint0_linear_178_2199)"/>
<defs>
<linearGradient id="paint0_linear_178_2199" x1="22.3129" y1="14.4254" x2="335.763" y2="299.261" gradientUnits="userSpaceOnUse">
<stop offset="0.526042" stop-color="#32CD32"/>
<stop offset="0.994792" stop-color="white"/>
</linearGradient>
</defs>
</svg>
