<svg width="178" height="143" viewBox="0 0 178 143" fill="none" xmlns="http://www.w3.org/2000/svg">
<g id="cloud-sun-solid 1" clip-path="url(#clip0_206_3439)">
<path id="Vector" d="M81.8243 0.335056C83.2427 0.921579 84.2439 2.20634 84.4943 3.71455L88.4158 27.371L111.973 31.3091C113.475 31.5604 114.754 32.5659 115.338 33.9903C115.922 35.4147 115.756 37.0347 114.893 38.2915L104.186 53.6528C103.574 53.6249 102.962 53.597 102.322 53.597C95.8418 53.597 89.7786 55.3286 84.5221 58.3729V58.0657C84.5221 43.263 72.5627 31.2532 57.8221 31.2532C43.0814 31.2532 31.1221 43.263 31.1221 58.0657C31.1221 72.8685 43.0814 84.8782 57.8221 84.8782C60.0749 84.8782 62.2443 84.5989 64.3302 84.0683C54.1508 89.1235 46.7249 98.8989 44.9171 110.574L38.1308 115.322C36.8793 116.215 35.2661 116.383 33.8477 115.768C32.4293 115.154 31.428 113.897 31.1777 112.389L27.284 88.7884L3.72676 84.8503C2.22489 84.5989 0.945514 83.5935 0.361451 82.169C-0.222611 80.7446 -0.055736 79.1247 0.806451 77.8679L14.6015 58.0937L0.806451 38.3194C-0.0835485 37.0626 -0.250424 35.4427 0.361451 34.0183C0.973326 32.5938 2.22489 31.5884 3.72676 31.337L27.284 27.3989L31.2055 3.74248C31.4558 2.23427 32.4571 0.949509 33.8755 0.362985C35.294 -0.223538 36.9071 -0.0559601 38.1586 0.80986L57.8499 14.663L77.5411 0.80986C78.7927 -0.0838898 80.4058 -0.251468 81.8243 0.362985V0.335056ZM40.0499 58.0937C40.0499 53.3529 41.9252 48.8063 45.2634 45.4541C48.6015 42.1019 53.129 40.2187 57.8499 40.2187C62.5707 40.2187 67.0982 42.1019 70.4364 45.4541C73.7745 48.8063 75.6499 53.3529 75.6499 58.0937C75.6499 62.8344 73.7745 67.381 70.4364 70.7332C67.0982 74.0854 62.5707 75.9687 57.8499 75.9687C53.129 75.9687 48.6015 74.0854 45.2634 70.7332C41.9252 67.381 40.0499 62.8344 40.0499 58.0937ZM177.972 120.628C177.972 132.973 168.015 142.972 155.722 142.972H80.0999C65.3593 142.972 53.3999 130.962 53.3999 116.159C53.3999 102.865 63.023 91.8606 75.6499 89.738V89.3749C75.6499 74.5722 87.6093 62.5624 102.35 62.5624C112.056 62.5624 120.539 67.7573 125.212 75.5218C128.827 72.9802 133.222 71.4999 137.95 71.4999C150.243 71.4999 160.2 81.4987 160.2 93.8437C160.2 95.4915 160.033 97.1114 159.671 98.6476C170.073 100.519 177.972 109.652 177.972 120.628Z" fill="url(#paint0_linear_206_3439)"/>
</g>
<defs>
<linearGradient id="paint0_linear_206_3439" x1="5.49988" y1="0.000124686" x2="178" y2="148.5" gradientUnits="userSpaceOnUse">
<stop offset="0.630208" stop-color="#32CD32"/>
<stop offset="1" stop-color="white"/>
</linearGradient>
<clipPath id="clip0_206_3439">
<rect width="178" height="143" fill="white"/>
</clipPath>
</defs>
</svg>
