<svg width="152" height="135" viewBox="0 0 152 135" fill="none" xmlns="http://www.w3.org/2000/svg">
<g id="piggy-bank-solid 1" clip-path="url(#clip0_206_3449)">
<path id="Vector" d="M105.556 25.3125V25.4971C104.157 25.3916 102.758 25.3125 101.333 25.3125H67.5556C63.2014 25.3125 58.9792 25.8662 54.9417 26.8945C54.9153 26.3672 54.8889 25.8398 54.8889 25.3125C54.8889 11.3379 66.2361 0 80.2222 0C94.2083 0 105.556 11.3379 105.556 25.3125ZM101.333 33.75C102.257 33.75 103.181 33.7764 104.078 33.8291C105.186 33.9082 106.294 34.0137 107.403 34.1719C112.047 28.7666 118.961 25.3125 126.667 25.3125H129.701C132.446 25.3125 134.451 27.8965 133.792 30.5596L130.15 45.1143C134.319 49.0166 137.724 53.7627 140.046 59.0625H143.556C148.226 59.0625 152 62.833 152 67.5V92.8125C152 97.4795 148.226 101.25 143.556 101.25H135.111C132.71 104.44 129.86 107.288 126.667 109.688V126.562C126.667 131.229 122.893 135 118.222 135H109.778C105.107 135 101.333 131.229 101.333 126.562V118.125H67.5556V126.562C67.5556 131.229 63.7819 135 59.1111 135H50.6667C45.9958 135 42.2222 131.229 42.2222 126.562V109.688C33.0125 102.779 26.7319 92.2061 25.5444 80.1562H17.9444C8.02222 80.1562 0 72.1406 0 62.2266C0 52.3125 8.02222 44.2969 17.9444 44.2969H19C22.5097 44.2969 25.3333 47.1182 25.3333 50.625C25.3333 54.1318 22.5097 56.9531 19 56.9531H17.9444C15.0417 56.9531 12.6667 59.3262 12.6667 62.2266C12.6667 65.127 15.0417 67.5 17.9444 67.5H26.1778C29.3708 51.7324 41.4042 39.1553 56.8681 35.1211C60.2722 34.2246 63.8611 33.75 67.5556 33.75H101.333ZM118.222 69.6094C118.222 67.9311 117.555 66.3215 116.367 65.1347C115.18 63.948 113.569 63.2812 111.889 63.2812C110.209 63.2812 108.598 63.948 107.411 65.1347C106.223 66.3215 105.556 67.9311 105.556 69.6094C105.556 71.2877 106.223 72.8973 107.411 74.084C108.598 75.2708 110.209 75.9375 111.889 75.9375C113.569 75.9375 115.18 75.2708 116.367 74.084C117.555 72.8973 118.222 71.2877 118.222 69.6094Z" fill="url(#paint0_linear_206_3449)"/>
</g>
<defs>
<linearGradient id="paint0_linear_206_3449" x1="0" y1="0" x2="144" y2="144" gradientUnits="userSpaceOnUse">
<stop offset="0.5" stop-color="#32CD32"/>
<stop offset="1" stop-color="white"/>
</linearGradient>
<clipPath id="clip0_206_3449">
<rect width="152" height="135" fill="white"/>
</clipPath>
</defs>
</svg>
