<svg width="159" height="159" viewBox="0 0 159 159" fill="none" xmlns="http://www.w3.org/2000/svg">
<g id="star-of-life-solid 1">
<path id="Vector" d="M64.5937 9.9375C64.5937 4.44082 69.0346 0 74.5312 0H84.4687C89.9654 0 94.4062 4.44082 94.4062 9.9375V53.6936L132.293 31.8311C137.044 29.0982 143.131 30.7131 145.864 35.4645L150.833 44.0666C153.565 48.818 151.951 54.9047 147.199 57.6375L109.312 79.5L147.199 101.362C151.951 104.095 153.565 110.182 150.833 114.933L145.864 123.536C143.131 128.287 137.044 129.933 132.293 127.169L94.4062 105.306V149.062C94.4062 154.559 89.9654 159 84.4687 159H74.5312C69.0346 159 64.5937 154.559 64.5937 149.062V105.306L26.707 127.2C21.9557 129.933 15.8689 128.318 13.1361 123.567L8.16738 114.964C5.43457 110.213 7.04941 104.126 11.8008 101.394L49.6875 79.5L11.8008 57.6375C7.04941 54.9047 5.43457 48.818 8.16738 44.0666L13.1361 35.4645C15.8689 30.682 21.9557 29.0672 26.707 31.8L64.5937 53.6625V9.9375Z" fill="url(#paint0_linear_206_3444)"/>
</g>
<defs>
<linearGradient id="paint0_linear_206_3444" x1="6.99989" y1="-5.86611e-06" x2="152" y2="159" gradientUnits="userSpaceOnUse">
<stop offset="0.46875" stop-color="#32CD32"/>
<stop offset="1" stop-color="white"/>
</linearGradient>
</defs>
</svg>
